<mxfile host="app.diagrams.net" modified="2023-03-21T16:11:30.485Z" agent="5.0 (Windows NT 10.0; Win64; x64) AppleWebKit/537.36 (KHTML, like Gecko) Chrome/108.0.0.0 YaBrowser/23.1.5.708 Yowser/2.5 Safari/537.36" etag="rp0h7mWwQyFl13mTmYd_" version="21.0.8" type="github">
  <diagram name="Страница 1" id="FqkKuZv9sn1umu0AEG19">
    <mxGraphModel dx="1012" dy="598" grid="1" gridSize="10" guides="1" tooltips="1" connect="1" arrows="1" fold="1" page="1" pageScale="1" pageWidth="827" pageHeight="1169" math="0" shadow="0">
      <root>
        <mxCell id="0" />
        <mxCell id="1" parent="0" />
        <mxCell id="OI7_kNNcS84gFx4NO_fZ-1" value="" style="edgeStyle=orthogonalEdgeStyle;rounded=0;orthogonalLoop=1;jettySize=auto;html=1;" edge="1" parent="1" source="OI7_kNNcS84gFx4NO_fZ-2">
          <mxGeometry relative="1" as="geometry">
            <mxPoint x="395" y="120" as="targetPoint" />
          </mxGeometry>
        </mxCell>
        <mxCell id="OI7_kNNcS84gFx4NO_fZ-2" value="start" style="rounded=1;whiteSpace=wrap;html=1;" vertex="1" parent="1">
          <mxGeometry x="330" y="40" width="130" height="50" as="geometry" />
        </mxCell>
        <mxCell id="OI7_kNNcS84gFx4NO_fZ-3" value="" style="edgeStyle=orthogonalEdgeStyle;rounded=0;orthogonalLoop=1;jettySize=auto;html=1;" edge="1" parent="1" source="OI7_kNNcS84gFx4NO_fZ-4" target="OI7_kNNcS84gFx4NO_fZ-7">
          <mxGeometry relative="1" as="geometry" />
        </mxCell>
        <mxCell id="OI7_kNNcS84gFx4NO_fZ-4" value="string [] array&lt;br&gt;string[] newArray&lt;br&gt;int i = 0" style="shape=parallelogram;perimeter=parallelogramPerimeter;whiteSpace=wrap;html=1;fixedSize=1;" vertex="1" parent="1">
          <mxGeometry x="335" y="120" width="120" height="60" as="geometry" />
        </mxCell>
        <mxCell id="OI7_kNNcS84gFx4NO_fZ-5" value="" style="edgeStyle=orthogonalEdgeStyle;rounded=0;orthogonalLoop=1;jettySize=auto;html=1;" edge="1" parent="1" source="OI7_kNNcS84gFx4NO_fZ-7" target="OI7_kNNcS84gFx4NO_fZ-9">
          <mxGeometry relative="1" as="geometry" />
        </mxCell>
        <mxCell id="OI7_kNNcS84gFx4NO_fZ-6" value="" style="edgeStyle=orthogonalEdgeStyle;rounded=0;orthogonalLoop=1;jettySize=auto;html=1;" edge="1" parent="1" source="OI7_kNNcS84gFx4NO_fZ-7" target="OI7_kNNcS84gFx4NO_fZ-23">
          <mxGeometry relative="1" as="geometry" />
        </mxCell>
        <mxCell id="OI7_kNNcS84gFx4NO_fZ-7" value="i &amp;lt;= array.length" style="rhombus;whiteSpace=wrap;html=1;" vertex="1" parent="1">
          <mxGeometry x="320" y="250" width="150" height="80" as="geometry" />
        </mxCell>
        <mxCell id="OI7_kNNcS84gFx4NO_fZ-8" value="" style="edgeStyle=orthogonalEdgeStyle;rounded=0;orthogonalLoop=1;jettySize=auto;html=1;" edge="1" parent="1" source="OI7_kNNcS84gFx4NO_fZ-9" target="OI7_kNNcS84gFx4NO_fZ-12">
          <mxGeometry relative="1" as="geometry" />
        </mxCell>
        <mxCell id="OI7_kNNcS84gFx4NO_fZ-9" value="array[i].length &amp;lt;= 3" style="rhombus;whiteSpace=wrap;html=1;" vertex="1" parent="1">
          <mxGeometry x="320" y="380" width="150" height="80" as="geometry" />
        </mxCell>
        <mxCell id="OI7_kNNcS84gFx4NO_fZ-10" value="yes" style="text;html=1;align=center;verticalAlign=middle;resizable=0;points=[];autosize=1;strokeColor=none;fillColor=none;" vertex="1" parent="1">
          <mxGeometry x="400" y="325" width="40" height="30" as="geometry" />
        </mxCell>
        <mxCell id="OI7_kNNcS84gFx4NO_fZ-11" value="" style="edgeStyle=orthogonalEdgeStyle;rounded=0;orthogonalLoop=1;jettySize=auto;html=1;" edge="1" parent="1" source="OI7_kNNcS84gFx4NO_fZ-12" target="OI7_kNNcS84gFx4NO_fZ-14">
          <mxGeometry relative="1" as="geometry" />
        </mxCell>
        <mxCell id="OI7_kNNcS84gFx4NO_fZ-12" value="newArray[i] = array[i]" style="whiteSpace=wrap;html=1;" vertex="1" parent="1">
          <mxGeometry x="332.5" y="510" width="125" height="60" as="geometry" />
        </mxCell>
        <mxCell id="OI7_kNNcS84gFx4NO_fZ-13" value="yes" style="text;html=1;align=center;verticalAlign=middle;resizable=0;points=[];autosize=1;strokeColor=none;fillColor=none;" vertex="1" parent="1">
          <mxGeometry x="410" y="460" width="40" height="30" as="geometry" />
        </mxCell>
        <mxCell id="OI7_kNNcS84gFx4NO_fZ-14" value="i ++" style="whiteSpace=wrap;html=1;" vertex="1" parent="1">
          <mxGeometry x="332.5" y="620" width="125" height="40" as="geometry" />
        </mxCell>
        <mxCell id="OI7_kNNcS84gFx4NO_fZ-15" value="" style="endArrow=none;html=1;rounded=0;" edge="1" parent="1">
          <mxGeometry width="50" height="50" relative="1" as="geometry">
            <mxPoint x="280" y="640" as="sourcePoint" />
            <mxPoint x="280" y="230" as="targetPoint" />
          </mxGeometry>
        </mxCell>
        <mxCell id="OI7_kNNcS84gFx4NO_fZ-16" value="" style="endArrow=none;html=1;rounded=0;" edge="1" parent="1">
          <mxGeometry width="50" height="50" relative="1" as="geometry">
            <mxPoint x="280" y="640" as="sourcePoint" />
            <mxPoint x="330" y="640" as="targetPoint" />
          </mxGeometry>
        </mxCell>
        <mxCell id="OI7_kNNcS84gFx4NO_fZ-17" value="" style="endArrow=classic;html=1;rounded=0;" edge="1" parent="1">
          <mxGeometry width="50" height="50" relative="1" as="geometry">
            <mxPoint x="280" y="230" as="sourcePoint" />
            <mxPoint x="390" y="230" as="targetPoint" />
          </mxGeometry>
        </mxCell>
        <mxCell id="OI7_kNNcS84gFx4NO_fZ-18" value="" style="endArrow=none;html=1;rounded=0;" edge="1" parent="1">
          <mxGeometry width="50" height="50" relative="1" as="geometry">
            <mxPoint x="550" y="640" as="sourcePoint" />
            <mxPoint x="550" y="420" as="targetPoint" />
          </mxGeometry>
        </mxCell>
        <mxCell id="OI7_kNNcS84gFx4NO_fZ-19" value="" style="endArrow=none;html=1;rounded=0;exitX=1;exitY=0.5;exitDx=0;exitDy=0;" edge="1" parent="1" source="OI7_kNNcS84gFx4NO_fZ-9">
          <mxGeometry width="50" height="50" relative="1" as="geometry">
            <mxPoint x="200" y="480" as="sourcePoint" />
            <mxPoint x="550" y="420" as="targetPoint" />
          </mxGeometry>
        </mxCell>
        <mxCell id="OI7_kNNcS84gFx4NO_fZ-20" value="" style="endArrow=classic;html=1;rounded=0;entryX=1;entryY=0.5;entryDx=0;entryDy=0;" edge="1" parent="1" target="OI7_kNNcS84gFx4NO_fZ-14">
          <mxGeometry width="50" height="50" relative="1" as="geometry">
            <mxPoint x="550" y="640" as="sourcePoint" />
            <mxPoint x="250" y="430" as="targetPoint" />
          </mxGeometry>
        </mxCell>
        <mxCell id="OI7_kNNcS84gFx4NO_fZ-21" value="No" style="text;html=1;align=center;verticalAlign=middle;resizable=0;points=[];autosize=1;strokeColor=none;fillColor=none;" vertex="1" parent="1">
          <mxGeometry x="470" y="385" width="40" height="30" as="geometry" />
        </mxCell>
        <mxCell id="OI7_kNNcS84gFx4NO_fZ-22" value="" style="edgeStyle=orthogonalEdgeStyle;rounded=0;orthogonalLoop=1;jettySize=auto;html=1;" edge="1" parent="1" source="OI7_kNNcS84gFx4NO_fZ-23" target="OI7_kNNcS84gFx4NO_fZ-24">
          <mxGeometry relative="1" as="geometry" />
        </mxCell>
        <mxCell id="OI7_kNNcS84gFx4NO_fZ-23" value="string[]newArray" style="shape=parallelogram;perimeter=parallelogramPerimeter;whiteSpace=wrap;html=1;fixedSize=1;" vertex="1" parent="1">
          <mxGeometry x="510" y="260" width="120" height="60" as="geometry" />
        </mxCell>
        <mxCell id="OI7_kNNcS84gFx4NO_fZ-24" value="end" style="rounded=1;whiteSpace=wrap;html=1;" vertex="1" parent="1">
          <mxGeometry x="660" y="265" width="120" height="60" as="geometry" />
        </mxCell>
        <mxCell id="OI7_kNNcS84gFx4NO_fZ-25" value="No" style="text;html=1;align=center;verticalAlign=middle;resizable=0;points=[];autosize=1;strokeColor=none;fillColor=none;" vertex="1" parent="1">
          <mxGeometry x="457.5" y="250" width="40" height="30" as="geometry" />
        </mxCell>
      </root>
    </mxGraphModel>
  </diagram>
</mxfile>
